<?xml version="1.0" standalone="no"?>
<!DOCTYPE svg PUBLIC "-//W3C//DTD SVG 20010904//EN"
 "http://www.w3.org/TR/2001/REC-SVG-20010904/DTD/svg10.dtd">
<svg version="1.0" xmlns="http://www.w3.org/2000/svg"
 width="1175.000000pt" height="1175.000000pt" viewBox="0 0 1175.000000 1175.000000"
 preserveAspectRatio="xMidYMid meet">
<metadata>
Created by potrace 1.14, written by Peter Selinger 2001-2017
</metadata>
<g transform="translate(0.000000,1175.000000) scale(0.100000,-0.100000)"
fill="#000000" stroke="none">
<path d="M0 5875 l0 -5875 5875 0 5875 0 0 5875 0 5875 -5875 0 -5875 0 0
-5875z m5799 4688 c59 -16 85 -30 148 -80 42 -33 104 -64 194 -97 25 -9 74
-41 110 -71 42 -37 93 -67 150 -91 50 -20 109 -55 140 -81 30 -25 99 -67 154
-93 55 -27 127 -69 161 -94 33 -25 94 -60 135 -77 41 -17 108 -56 149 -87 44
-34 110 -70 160 -90 83 -33 130 -62 179 -109 13 -13 54 -37 90 -54 96 -44 118
-57 196 -114 39 -29 90 -60 115 -69 60 -23 127 -62 174 -102 21 -18 73 -47
115 -64 107 -43 115 -48 163 -92 24 -22 90 -62 147 -89 68 -33 123 -67 161
-102 31 -29 79 -60 106 -70 27 -11 62 -24 79 -30 16 -6 63 -37 105 -68 79 -59
130 -89 153 -89 14 0 114 -71 132 -93 19 -24 80 -54 154 -77 65 -19 83 -30
140 -85 50 -48 89 -74 161 -108 101 -47 139 -80 197 -172 18 -28 40 -59 50
-70 46 -50 81 -103 94 -140 12 -34 14 -406 13 -2385 l0 -2345 -24 -50 c-31
-65 -122 -155 -190 -190 -29 -15 -83 -57 -120 -94 -59 -60 -73 -68 -126 -80
-116 -26 -148 -40 -204 -92 -65 -60 -83 -70 -175 -98 -49 -15 -93 -38 -148
-79 -43 -32 -107 -69 -142 -82 -35 -13 -96 -47 -135 -76 -39 -29 -92 -60 -118
-69 -102 -36 -147 -62 -194 -111 -49 -52 -69 -61 -210 -99 -48 -13 -64 -24
-104 -69 -54 -63 -105 -91 -193 -106 -78 -14 -90 -21 -167 -91 -53 -48 -74
-60 -157 -86 -78 -25 -106 -40 -159 -85 -34 -29 -79 -60 -98 -67 -88 -35 -129
-56 -186 -96 -33 -24 -100 -62 -148 -85 -49 -23 -105 -56 -125 -74 -58 -52
-92 -72 -161 -95 -74 -26 -142 -66 -184 -111 -33 -36 -83 -63 -146 -80 -53
-14 -127 -51 -155 -77 -48 -45 -95 -73 -171 -102 -44 -17 -105 -49 -135 -72
-91 -68 -166 -99 -265 -109 -175 -19 -274 5 -394 95 -45 34 -97 62 -139 76
-85 28 -131 51 -156 79 -33 38 -117 95 -168 116 -26 10 -78 40 -115 66 -37 26
-107 68 -155 92 -48 25 -95 52 -103 61 -37 36 -133 94 -194 115 -87 30 -91 33
-161 95 -51 46 -143 95 -178 95 -28 0 -103 46 -146 90 -31 33 -79 66 -127 90
-43 21 -106 59 -140 83 -35 25 -101 63 -148 85 -50 23 -99 55 -120 76 -35 37
-122 86 -153 86 -9 0 -41 9 -72 21 -41 15 -66 34 -98 70 -47 57 -72 72 -169
105 -70 23 -111 48 -161 95 -15 15 -67 47 -116 72 -49 25 -115 65 -147 90 -33
26 -83 53 -114 62 -98 30 -126 46 -184 105 -45 46 -68 61 -114 74 -155 45
-162 48 -203 97 -26 31 -60 58 -97 75 -31 14 -79 37 -107 50 -49 23 -87 54
-213 177 -79 77 -100 116 -113 215 -6 51 -9 864 -7 2387 3 2286 3 2310 23
2340 16 24 72 85 173 188 142 145 239 217 292 217 36 0 127 40 186 82 33 23
93 56 134 73 41 18 118 60 170 94 52 34 106 64 120 68 43 10 100 43 158 90 53
43 79 57 202 109 25 10 73 45 108 77 35 33 89 70 120 84 95 41 135 64 187 108
62 52 75 59 172 90 54 17 100 41 150 79 40 29 89 61 110 71 78 35 115 56 136
76 43 41 107 80 187 113 45 19 102 52 127 73 66 56 91 71 163 94 87 29 137 55
174 91 31 30 139 88 164 88 30 0 120 47 172 88 51 42 145 92 173 92 24 0 114
48 174 92 34 25 87 55 119 67 102 39 121 49 184 95 33 25 86 54 118 66 103 39
315 45 431 13z"/>
<path d="M5524 10101 c-21 -15 -65 -38 -97 -50 -79 -29 -134 -58 -185 -97 -24
-18 -89 -55 -145 -83 -56 -28 -115 -62 -132 -77 -16 -14 -77 -49 -135 -76 -98
-47 -149 -80 -209 -135 -14 -12 -36 -27 -50 -32 -15 -5 -57 -22 -96 -37 -41
-16 -97 -49 -135 -80 -40 -32 -96 -64 -145 -84 -44 -17 -116 -56 -160 -85 -44
-30 -111 -68 -150 -86 -38 -17 -92 -48 -120 -69 -63 -48 -105 -71 -177 -98
-70 -26 -123 -59 -163 -102 -33 -34 -51 -44 -170 -89 -47 -18 -97 -46 -120
-67 -54 -49 -107 -78 -188 -103 -73 -23 -129 -54 -189 -106 -21 -17 -82 -48
-137 -69 -55 -21 -106 -44 -112 -52 -6 -8 -17 -14 -24 -14 -7 0 -18 -7 -26
-16 -11 -14 -190 -104 -207 -104 -4 0 -35 -24 -70 -54 -35 -29 -82 -61 -105
-71 -107 -44 -150 -68 -200 -113 -29 -27 -75 -63 -101 -82 -33 -22 -55 -47
-69 -79 l-21 -46 -2 -1495 c-1 -822 1 -1819 5 -2215 6 -631 8 -724 22 -756 24
-52 59 -83 125 -109 75 -30 116 -53 184 -108 30 -24 66 -49 80 -54 53 -20 131
-63 162 -90 45 -39 102 -70 189 -103 52 -20 89 -44 132 -82 54 -50 144 -103
175 -103 26 0 94 -42 146 -89 33 -30 77 -57 112 -71 33 -12 102 -50 154 -85
52 -35 125 -75 162 -90 37 -15 77 -36 90 -47 82 -72 114 -91 204 -124 54 -19
109 -45 122 -57 13 -12 39 -36 56 -52 18 -17 73 -48 122 -70 73 -32 182 -98
204 -124 3 -4 41 -23 84 -43 44 -21 95 -50 114 -65 53 -42 121 -81 177 -99 77
-26 117 -49 167 -96 26 -24 61 -51 80 -60 18 -9 67 -33 108 -53 41 -20 100
-56 130 -79 30 -24 93 -61 140 -84 47 -22 111 -61 142 -85 32 -25 88 -57 125
-72 37 -15 90 -43 116 -62 65 -48 108 -48 174 -1 26 19 86 49 132 67 46 17
115 54 154 82 38 28 105 66 150 85 44 19 109 55 144 80 35 25 94 59 131 75 96
42 121 57 177 103 50 42 86 60 183 93 35 12 76 38 118 75 74 66 102 82 170 99
65 16 119 44 174 89 44 37 116 80 134 80 17 0 125 59 169 93 42 32 71 48 177
96 25 11 70 40 100 65 50 42 81 58 202 101 29 11 68 38 101 70 57 56 110 88
167 100 58 13 102 37 167 91 34 29 84 60 110 69 72 26 150 63 165 78 32 32
110 78 183 108 44 18 91 42 105 54 45 39 122 84 177 105 84 31 111 47 192 116
42 36 85 72 97 82 12 9 29 31 38 49 15 30 16 207 16 2225 0 2338 1 2247 -47
2331 -18 32 -50 50 -191 113 -35 16 -79 43 -97 61 -29 28 -140 93 -159 93 -9
0 -107 61 -146 91 -19 15 -77 45 -128 67 -50 22 -110 56 -132 76 -55 50 -104
78 -185 109 -45 17 -95 47 -136 81 -35 30 -94 67 -130 84 -37 16 -106 56 -155
88 -49 32 -121 73 -159 89 -39 17 -102 54 -139 83 -42 31 -102 64 -152 84 -60
22 -105 48 -156 91 -40 32 -109 76 -153 97 -44 20 -102 54 -129 75 -27 21 -90
58 -140 82 -50 25 -125 68 -167 97 -42 29 -108 65 -148 81 -39 15 -95 46 -123
69 -88 71 -121 92 -186 117 -35 13 -94 47 -131 76 -38 28 -102 68 -142 88 -41
21 -112 62 -158 93 -46 30 -109 65 -140 77 -31 12 -78 36 -105 53 -64 41 -108
42 -162 3z m613 -2336 c41 -17 45 -22 114 -125 69 -104 94 -160 123 -279 24
-95 64 -190 105 -251 24 -34 58 -123 75 -195 19 -82 42 -143 70 -185 45 -70
83 -160 97 -233 13 -70 57 -174 99 -237 44 -64 65 -123 80 -215 13 -82 32
-131 85 -217 50 -80 66 -122 94 -247 22 -96 43 -145 91 -216 41 -62 56 -102
79 -207 24 -112 44 -166 82 -223 40 -61 77 -151 98 -243 18 -75 41 -131 100
-242 19 -35 41 -99 60 -175 33 -134 39 -148 128 -294 30 -48 31 -118 2 -155
-27 -34 -97 -53 -224 -60 -143 -8 -270 6 -332 38 -50 25 -53 29 -126 175 -42
82 -90 196 -107 253 -54 173 -58 185 -104 275 -24 49 -56 124 -70 169 -37 110
-69 147 -154 175 -76 26 -14 25 -807 20 -527 -4 -530 -4 -575 -26 -85 -43
-170 -160 -210 -290 -12 -39 -33 -108 -47 -155 -15 -47 -50 -130 -79 -185 -29
-55 -60 -129 -69 -165 -36 -142 -46 -167 -78 -197 -69 -65 -155 -88 -327 -87
-164 1 -209 8 -249 42 -51 42 -52 91 -7 225 20 59 61 156 90 215 30 59 63 145
75 192 12 47 46 135 76 197 30 61 72 170 94 241 21 70 55 162 76 203 21 41 47
91 57 112 10 21 28 74 39 118 25 100 55 183 84 229 39 62 58 112 111 284 15
49 45 121 66 159 38 71 52 106 108 280 17 54 50 136 74 181 24 46 63 143 85
215 23 73 51 149 63 169 71 126 89 167 112 257 13 55 32 114 40 130 9 17 16
33 16 36 0 3 20 40 44 83 48 84 65 130 91 246 37 170 91 198 378 199 128 1
176 -3 204 -14z"/>
<path d="M5897 6671 c-37 -24 -133 -148 -161 -206 -13 -27 -36 -90 -50 -140
-46 -161 -69 -224 -85 -242 -22 -25 -57 -105 -81 -188 -11 -38 -32 -106 -45
-151 -14 -44 -25 -88 -25 -98 0 -34 35 -76 80 -99 44 -21 53 -22 381 -21 297
0 341 2 383 18 95 36 103 122 24 271 -66 126 -79 160 -102 256 -14 61 -46 151
-75 215 -27 60 -53 123 -57 139 -4 17 -10 35 -15 41 -5 5 -15 35 -23 66 -32
125 -90 178 -149 139z"/>
</g>
</svg>
